<?xml version="1.0" encoding="UTF-8" standalone="no"?><!DOCTYPE svg PUBLIC "-//W3C//DTD SVG 1.1//EN" "http://www.w3.org/Graphics/SVG/1.1/DTD/svg11.dtd"><svg width="100%" height="100%" viewBox="0 0 1300 300" version="1.1" xmlns="http://www.w3.org/2000/svg" xmlns:xlink="http://www.w3.org/1999/xlink" xml:space="preserve" xmlns:serif="http://www.serif.com/" style="fill-rule:evenodd;clip-rule:evenodd;stroke-linejoin:round;stroke-miterlimit:1.41421;"><g><g><path d="M4.072,146.309c0,0 11.852,17.412 36.693,32.151c0,0 -17.991,-152.052 99.234,-178.46c-30.034,110.227 38.203,141.313 63.076,83.078c41.539,55.459 10,103.845 10,103.845c17.033,2.454 31.34,-16.154 31.34,-16.154c0.128,2.292 0.199,4.6 0.199,6.924c0.001,67.548 -54.758,122.307 -122.307,122.307c-67.548,0 -122.307,-54.759 -122.307,-122.307c0,-10.851 1.42,-21.368 4.072,-31.384Z" style="fill:#f15945;fill-rule:nonzero;"/><path d="M244.416,170.769c0,0 -14.308,18.608 -31.34,16.154c0,0 31.539,-48.386 -10,-103.845c-24.874,58.235 -93.11,27.149 -63.077,-83.077c-6.278,1.414 -12.166,3.191 -17.692,5.284l0,294.715c67.549,0 122.308,-54.759 122.308,-122.307c0,-2.325 -0.072,-4.632 -0.199,-6.924Z" style="fill:#ef3e3c;fill-rule:nonzero;"/><path d="M68.668,246.361c0,29.624 24.016,53.639 53.639,53.639c29.624,0 53.639,-24.015 53.639,-53.639c0,-15.856 -6.879,-30.105 -17.817,-39.925c-20.738,28.175 -50.292,-14.564 -27.26,-45.774c0,0 -62.201,7.794 -62.201,85.699Z" style="fill:#fcb126;fill-rule:nonzero;"/><path d="M175.946,246.361c0,-15.856 -6.879,-30.105 -17.817,-39.925c-20.738,28.175 -50.292,-14.564 -27.26,-45.774c0,0 -3.38,0.425 -8.562,2.06l0,137.278c29.624,0 53.639,-24.015 53.639,-53.639Z" style="fill:#f8992d;fill-rule:nonzero;"/></g><text x="343.107px" y="262.199px" style="font-family:'CartographSansCF-ExtraBoldItalic', 'Cartograph Sans CF';font-weight:800;font-style:italic;font-size:193.851px;fill:#d9d9d9;">fir<tspan x="701.053px " y="262.199px ">e</tspan>br<tspan x="1064.62px " y="262.199px ">o</tspan>k</text></g></svg>