<?xml version="1.0" encoding="UTF-8" standalone="no"?><!DOCTYPE svg PUBLIC "-//W3C//DTD SVG 1.1//EN" "http://www.w3.org/Graphics/SVG/1.1/DTD/svg11.dtd"><svg width="100%" height="100%" viewBox="0 0 1300 300" version="1.1" xmlns="http://www.w3.org/2000/svg" xmlns:xlink="http://www.w3.org/1999/xlink" xml:space="preserve" xmlns:serif="http://www.serif.com/" style="fill-rule:evenodd;clip-rule:evenodd;stroke-linejoin:round;stroke-miterlimit:1.41421;"><g><g><path d="M4.072,146.309c0,0 11.852,17.412 36.693,32.151c0,0 -17.991,-152.052 99.234,-178.46c-30.034,110.227 38.203,141.313 63.076,83.078c41.539,55.459 10,103.845 10,103.845c17.033,2.454 31.34,-16.154 31.34,-16.154c0.128,2.292 0.199,4.6 0.199,6.924c0.001,67.548 -54.758,122.307 -122.307,122.307c-67.548,0 -122.307,-54.759 -122.307,-122.307c0,-10.851 1.42,-21.368 4.072,-31.384Z" style="fill:#f15945;fill-rule:nonzero;"/><path d="M244.416,170.769c0,0 -14.308,18.608 -31.34,16.154c0,0 31.539,-48.386 -10,-103.845c-24.874,58.235 -93.11,27.149 -63.077,-83.077c-6.278,1.414 -12.166,3.191 -17.692,5.284l0,294.715c67.549,0 122.308,-54.759 122.308,-122.307c0,-2.325 -0.072,-4.632 -0.199,-6.924Z" style="fill:#ef3e3c;fill-rule:nonzero;"/><path d="M68.668,246.361c0,29.624 24.016,53.639 53.639,53.639c29.624,0 53.639,-24.015 53.639,-53.639c0,-15.856 -6.879,-30.105 -17.817,-39.925c-20.738,28.175 -50.292,-14.564 -27.26,-45.774c0,0 -62.201,7.794 -62.201,85.699Z" style="fill:#fcb126;fill-rule:nonzero;"/><path d="M175.946,246.361c0,-15.856 -6.879,-30.105 -17.817,-39.925c-20.738,28.175 -50.292,-14.564 -27.26,-45.774c0,0 -3.38,0.425 -8.562,2.06l0,137.278c29.624,0 53.639,-24.015 53.639,-53.639Z" style="fill:#f8992d;fill-rule:nonzero;"/></g><g><path d="M444.491,119.525c-22.874,0 -47.881,8.045 -52.146,38.092l-1.357,9.595l-22.583,0c-1.745,0 -2.908,0.776 -3.102,2.714l-2.423,16.38c-0.194,1.939 0.776,3.102 2.714,3.102l22.293,0l-9.014,65.134c-2.423,17.059 -12.988,22.584 -22.293,22.584c-7.657,0 -13.473,-3.393 -17.35,-6.107c-1.647,-1.26 -3.198,-1.454 -4.555,0.485l-8.142,11.049c-3.102,4.362 11.05,17.447 33.245,17.447c20.839,0 41.194,-8.045 45.555,-40.03l9.984,-70.562l37.704,0c1.744,0 2.811,-0.775 3.101,-2.714l2.424,-16.38c0.29,-1.939 -0.776,-3.102 -2.714,-3.102l-37.414,0l0.582,-4.168c2.035,-15.12 14.345,-20.645 30.047,-20.645c9.692,0 14.151,1.551 17.931,2.617c1.745,0.485 3.102,-0.581 3.295,-2.52l2.424,-15.702c0.678,-4.555 -16.09,-7.269 -28.206,-7.269Z" style="fill:#d9d9d9;fill-rule:nonzero;"/><path d="M530.755,149.863c8.239,0 14.83,-6.591 14.83,-14.83c0,-8.239 -6.591,-14.83 -14.83,-14.83c-8.239,0 -14.83,6.591 -14.83,14.83c0,8.239 6.591,14.83 14.83,14.83Zm42.744,97.119l-5.428,-12.213c-1.163,-2.811 -4.071,-2.617 -5.718,-1.163c-4.362,3.683 -9.499,7.269 -17.447,7.269c-7.269,0 -15.605,-4.167 -12.794,-21.032l7.851,-49.529c0.291,-2.036 -0.679,-3.102 -2.617,-3.102l-53.988,0c-1.744,0 -2.81,0.776 -3.101,2.714l-2.423,16.38c-0.291,1.939 0.775,3.102 2.714,3.102l29.562,0l-5.622,32.664c-5.428,31.985 15.024,42.066 36.056,42.066c15.508,0 27.721,-7.754 32.373,-13.085c1.067,-1.26 1.357,-2.327 0.582,-4.071Z" style="fill:#d9d9d9;fill-rule:nonzero;"/><path d="M663.93,165.08c-16.283,0 -25.685,6.978 -30.337,17.253l-2.036,0l0,-0.194l0.776,-11.244c0.097,-1.744 -1.163,-3.683 -2.908,-3.683l-20.16,0c-1.745,0 -2.811,0.776 -3.102,2.714l-12.794,89.171c-0.291,2.133 0.775,3.102 2.714,3.102l21.323,0c1.745,0 2.811,-0.775 3.102,-2.714l7.366,-51.467c2.133,-5.913 8.142,-17.544 24.619,-17.544c8.433,0 17.156,3.877 14.539,18.707c-0.388,2.617 0.969,3.683 3.392,3.392l19.773,-2.52c2.617,-0.291 3.974,-1.841 4.168,-3.586c3.877,-26.073 -8.82,-41.387 -30.435,-41.387Z" style="fill:#d9d9d9;fill-rule:nonzero;"/><path d="M813.002,202.299c0,-20.451 -15.121,-37.219 -42.841,-37.219c-32.083,0 -57.38,25.297 -57.38,56.217c0,24.812 17.931,43.422 47.881,43.422c15.702,0 29.465,-4.168 39.643,-12.891c2.229,-1.745 1.356,-3.974 0.29,-5.234l-7.754,-9.208c-0.969,-1.163 -2.52,-2.423 -5.137,-0.872c-6.494,4.071 -13.86,6.203 -23.747,6.203c-15.798,0 -25.685,-6.106 -25.976,-17.543l43.714,0c26.073,0 31.307,-10.275 31.307,-22.875Zm-71.725,4.362c4.362,-12.116 14.926,-18.513 27.818,-18.513c11.921,0 19.578,5.719 19.772,12.407c0.194,5.137 -3.392,6.106 -16.477,6.106l-31.113,0Z" style="fill:#d9d9d9;fill-rule:nonzero;"/><path d="M902.076,165.08c-12.6,0 -21.808,5.331 -28.205,12.891l-2.52,0l6.882,-48.366c0.193,-1.938 -0.776,-3.102 -2.714,-3.102l-21.324,0c-1.745,0 -2.908,0.776 -3.102,2.714l-18.609,129.88c-0.388,2.133 0.775,3.102 2.714,3.102l21.323,0c1.745,0 2.908,-0.775 3.102,-2.714l1.066,-7.366c5.912,7.463 14.83,12.6 27.624,12.6c29.756,0 49.044,-27.333 49.044,-58.058c0,-23.65 -13.376,-41.581 -35.281,-41.581Zm-17.446,74.729c-11.244,0 -18.125,-6.881 -18.125,-19.676c0,-14.248 8.723,-30.143 26.46,-30.143c11.05,0 18.222,6.784 18.222,19.579c0,15.701 -9.595,30.24 -26.557,30.24Z" style="fill:#d9d9d9;fill-rule:nonzero;"/><path d="M1027.5,165.08c-16.284,0 -25.686,6.978 -30.338,17.253l-2.035,0l0,-0.194l0.775,-11.244c0.097,-1.744 -1.163,-3.683 -2.908,-3.683l-20.16,0c-1.745,0 -2.811,0.776 -3.102,2.714l-12.794,89.171c-0.291,2.133 0.775,3.102 2.714,3.102l21.323,0c1.745,0 2.811,-0.775 3.102,-2.714l7.366,-51.467c2.133,-5.913 8.142,-17.544 24.619,-17.544c8.433,0 17.156,3.877 14.539,18.707c-0.387,2.617 0.97,3.683 3.393,3.392l19.772,-2.52c2.617,-0.291 3.974,-1.841 4.168,-3.586c3.877,-26.073 -8.82,-41.387 -30.434,-41.387Z" style="fill:#d9d9d9;fill-rule:nonzero;"/><path d="M1121.71,264.719c30.144,0 53.988,-24.91 53.988,-54.375c0,-25.879 -19.095,-45.264 -45.265,-45.264c-28.883,0 -53.793,23.843 -53.793,53.987c0,25.976 18.9,45.652 45.07,45.652Zm1.939,-25.297c-11.922,0 -20.645,-8.627 -20.645,-21.421c0,-15.799 11.243,-27.624 25.685,-27.624c11.922,0 20.451,8.627 20.451,21.421c0,17.35 -11.631,27.624 -25.491,27.624Z" style="fill:#d9d9d9;fill-rule:nonzero;"/><path d="M1296.85,167.309l-25.297,0c-1.357,0 -2.036,-0.291 -3.199,0.872l-36.928,34.021l10.371,-72.597c0.194,-1.938 -0.776,-3.102 -2.714,-3.102l-21.324,0c-1.744,0 -2.907,0.776 -3.101,2.714l-18.61,129.88c-0.388,2.133 0.775,3.102 2.714,3.102l21.323,0c1.745,0 2.908,-0.775 3.102,-2.714l3.392,-23.359l13.764,-12.212l22.874,35.959c0.776,1.163 1.745,2.423 3.296,2.423l23.843,0c2.327,0 2.23,-0.969 1.164,-2.908l-33.343,-51.467l41.097,-36.541c1.744,-1.551 0.096,-4.071 -2.424,-4.071Z" style="fill:#d9d9d9;fill-rule:nonzero;"/></g></g></svg>