<?xml version="1.0" encoding="UTF-8" standalone="no"?><!DOCTYPE svg PUBLIC "-//W3C//DTD SVG 1.1//EN" "http://www.w3.org/Graphics/SVG/1.1/DTD/svg11.dtd"><svg width="100%" height="100%" viewBox="0 0 250 300" version="1.1" xmlns="http://www.w3.org/2000/svg" xmlns:xlink="http://www.w3.org/1999/xlink" xml:space="preserve" xmlns:serif="http://www.serif.com/" style="fill-rule:evenodd;clip-rule:evenodd;stroke-linejoin:round;stroke-miterlimit:1.41421;"><g><path d="M6.764,146.309c0,0 11.853,17.412 36.694,32.151c0,0 -17.991,-152.052 99.233,-178.46c-30.033,110.227 38.203,141.313 63.077,83.078c41.539,55.459 10,103.845 10,103.845c17.032,2.454 31.34,-16.154 31.34,-16.154c0.127,2.292 0.199,4.6 0.199,6.924c0,67.548 -54.758,122.307 -122.307,122.307c-67.549,0 -122.307,-54.759 -122.307,-122.307c0,-10.851 1.42,-21.368 4.071,-31.384Z" style="fill:#f15945;fill-rule:nonzero;"/><path d="M247.108,170.769c0,0 -14.307,18.608 -31.34,16.154c0,0 31.539,-48.386 -9.999,-103.845c-24.874,58.235 -93.111,27.149 -63.077,-83.077c-6.279,1.414 -12.166,3.191 -17.692,5.284l0,294.715c67.549,0 122.307,-54.759 122.307,-122.307c0,-2.325 -0.071,-4.632 -0.199,-6.924Z" style="fill:#ef3e3c;fill-rule:nonzero;"/><path d="M71.361,246.361c0,29.624 24.015,53.639 53.639,53.639c29.623,0 53.639,-24.015 53.639,-53.639c0,-15.856 -6.879,-30.105 -17.817,-39.925c-20.739,28.175 -50.292,-14.564 -27.26,-45.774c0,0 -62.201,7.794 -62.201,85.699Z" style="fill:#fcb126;fill-rule:nonzero;"/><path d="M178.639,246.361c0,-15.856 -6.879,-30.105 -17.817,-39.925c-20.739,28.175 -50.292,-14.564 -27.26,-45.774c0,0 -3.38,0.425 -8.562,2.06l0,137.278c29.623,0 53.639,-24.015 53.639,-53.639Z" style="fill:#f8992d;fill-rule:nonzero;"/></g></svg>